<?xml version="1.0" encoding="utf-8"?>
<!-- Generator: Adobe Illustrator 24.0.3, SVG Export Plug-In . SVG Version: 6.00 Build 0)  -->
<!DOCTYPE svg PUBLIC "-//W3C//DTD SVG 1.1//EN" "http://www.w3.org/Graphics/SVG/1.1/DTD/svg11.dtd" [
	<!ENTITY ns_extend "http://ns.adobe.com/Extensibility/1.0/">
	<!ENTITY ns_ai "http://ns.adobe.com/AdobeIllustrator/10.0/">
	<!ENTITY ns_graphs "http://ns.adobe.com/Graphs/1.0/">
	<!ENTITY ns_vars "http://ns.adobe.com/Variables/1.0/">
	<!ENTITY ns_imrep "http://ns.adobe.com/ImageReplacement/1.0/">
	<!ENTITY ns_sfw "http://ns.adobe.com/SaveForWeb/1.0/">
	<!ENTITY ns_custom "http://ns.adobe.com/GenericCustomNamespace/1.0/">
	<!ENTITY ns_adobe_xpath "http://ns.adobe.com/XPath/1.0/">
]>
<svg version="1.1" id="Слой_1" xmlns:x="&ns_extend;" xmlns:i="&ns_ai;" xmlns:graph="&ns_graphs;"
	 xmlns="http://www.w3.org/2000/svg" xmlns:xlink="http://www.w3.org/1999/xlink" x="0px" y="0px" viewBox="0 0 110.7 110.7"
	 style="enable-background:new 0 0 110.7 110.7;" xml:space="preserve">
<style type="text/css">
	.st0{fill:#E74C3C;}
	.st1{fill:url(#SVGID_1_);}
	.st2{fill:#F1C406;}
</style>
<metadata>
	<sfw  xmlns="&ns_sfw;">
		<slices></slices>
		<sliceSourceBounds  bottomLeftOrigin="true" height="110.7" width="110.7" x="0" y="0"></sliceSourceBounds>
	</sfw>
</metadata>
<circle class="st0" cx="55.3" cy="55.3" r="55.3"/>
<linearGradient id="SVGID_1_" gradientUnits="userSpaceOnUse" x1="168.8" y1="-699.16" x2="247.41" y2="-777.77" gradientTransform="matrix(1 0 0 -1 -155.77 -680.82)">
	<stop  offset="0.32" style="stop-color:#9A4038"/>
	<stop  offset="1" style="stop-color:#E74C3C"/>
</linearGradient>
<path class="st1" d="M86.3,48.4h-7.3C66,35.3,56.1,25.2,56.1,25.2v26.5l-31.7-3.3l21.2,21.2l-9.4,15.2l25.5,25.5
	c22-2.6,40.4-18,46.7-39.3L86.6,49.2L86.3,48.4L86.3,48.4z"/>
<polygon class="st2" points="55.3,25.9 62.7,48.3 86.3,48.4 67.2,62.3 74.4,84.7 55.3,70.9 36.2,84.7 43.4,62.3 24.4,48.4 48,48.3 
	"/>
</svg>
