<?xml version="1.0" encoding="utf-8"?>
<!-- Generator: Adobe Illustrator 24.0.3, SVG Export Plug-In . SVG Version: 6.00 Build 0)  -->
<!DOCTYPE svg PUBLIC "-//W3C//DTD SVG 1.1//EN" "http://www.w3.org/Graphics/SVG/1.1/DTD/svg11.dtd" [
	<!ENTITY ns_extend "http://ns.adobe.com/Extensibility/1.0/">
	<!ENTITY ns_ai "http://ns.adobe.com/AdobeIllustrator/10.0/">
	<!ENTITY ns_graphs "http://ns.adobe.com/Graphs/1.0/">
	<!ENTITY ns_vars "http://ns.adobe.com/Variables/1.0/">
	<!ENTITY ns_imrep "http://ns.adobe.com/ImageReplacement/1.0/">
	<!ENTITY ns_sfw "http://ns.adobe.com/SaveForWeb/1.0/">
	<!ENTITY ns_custom "http://ns.adobe.com/GenericCustomNamespace/1.0/">
	<!ENTITY ns_adobe_xpath "http://ns.adobe.com/XPath/1.0/">
]>
<svg version="1.1" id="Слой_1" xmlns:x="&ns_extend;" xmlns:i="&ns_ai;" xmlns:graph="&ns_graphs;"
	 xmlns="http://www.w3.org/2000/svg" xmlns:xlink="http://www.w3.org/1999/xlink" x="0px" y="0px" viewBox="0 0 122 122"
	 style="enable-background:new 0 0 122 122;" xml:space="preserve">
<style type="text/css">
	.st0{fill:#F1C406;}
	.st1{fill:url(#SVGID_1_);}
	.st2{fill:#E74C3C;}
</style>
<metadata>
	<sfw  xmlns="&ns_sfw;">
		<slices></slices>
		<sliceSourceBounds  bottomLeftOrigin="true" height="122" width="122" x="0" y="0"></sliceSourceBounds>
	</sfw>
</metadata>
<circle class="st0" cx="61" cy="61" r="61"/>
<linearGradient id="SVGID_1_" gradientUnits="userSpaceOnUse" x1="334.05" y1="589.77" x2="415.54" y2="671.26" gradientTransform="matrix(1 0 0 1 -311.54 -567.27)">
	<stop  offset="0.33" style="stop-color:#B29527"/>
	<stop  offset="1" style="stop-color:#EEC318"/>
</linearGradient>
<path class="st1" d="M95.1,61c0,0-20-12.9-27.1-14.2s-15.9,0-41.2,14.2l56.7,56.7c15.6-6.2,27.9-18.5,34.1-34.1L95.1,61z"/>
<g>
	<path class="st2" d="M61,45.5C49.4,45.5,26.9,61,26.9,61S49.4,76.5,61,76.5S95.1,61,95.1,61S72.6,45.5,61,45.5z M30.9,61
		c0,0,19.9-12.8,30.1-12.8S91.2,61,91.2,61S71.3,73.8,61,73.8S30.9,61,30.9,61z"/>
	<path class="st2" d="M70.9,57.1c-0.4,0.4-1,0.6-1.6,0.6c-1.3,0-2.4-1.1-2.4-2.4l0,0c0-0.9,0.5-1.7,1.3-2.1
		c-4.4-4-11.2-3.6-15.1,0.7S49.4,65,53.8,69c4.4,4,11.2,3.6,15.1-0.7C71.7,65.2,72.5,60.9,70.9,57.1z"/>
</g>
</svg>
